<svg width="35" height="35" viewBox="0 0 35 35" fill="none" xmlns="http://www.w3.org/2000/svg">
<path d="M29.8744 22.6256C27.9683 20.7196 25.6996 19.3086 23.2243 18.4544C25.8755 16.6285 27.6172 13.5726 27.6172 10.1172C27.6172 4.53858 23.0786 0 17.5 0C11.9214 0 7.38281 4.53858 7.38281 10.1172C7.38281 13.5726 9.12454 16.6285 11.7757 18.4544C9.30043 19.3086 7.03172 20.7196 5.12565 22.6256C1.82034 25.931 0 30.3256 0 35H2.73438C2.73438 26.8582 9.35819 20.2344 17.5 20.2344C25.6418 20.2344 32.2656 26.8582 32.2656 35H35C35 30.3256 33.1797 25.931 29.8744 22.6256ZM17.5 17.5C13.4291 17.5 10.1172 14.1881 10.1172 10.1172C10.1172 6.04625 13.4291 2.73438 17.5 2.73438C21.5709 2.73438 24.8828 6.04625 24.8828 10.1172C24.8828 14.1881 21.5709 17.5 17.5 17.5Z" fill="#4335E5"/>
</svg>
